Coordinates
version=1
nRows=20
nColumns=34
inDegrees=no

Units are S.I. units (second, meters, Newtons, ...)
If the header above contains a line with 'inDegrees', this indicates whether rotational values are in degrees (yes) or radians (no).

endheader
time	pelvis_tilt	pelvis_list	pelvis_rotation	pelvis_tx	pelvis_ty	pelvis_tz	hip_flexion_r	hip_adduction_r	hip_rotation_r	knee_angle_r	ankle_angle_r	subtalar_angle_r	mtp_angle_r	hip_flexion_l	hip_adduction_l	hip_rotation_l	knee_angle_l	ankle_angle_l	subtalar_angle_l	mtp_angle_l	lumbar_extension	lumbar_bending	lumbar_rotation	arm_flex_r	arm_add_r	arm_rot_r	elbow_flex_r	pro_sup_r	arm_flex_l	arm_add_l	arm_rot_l	elbow_flex_l	pro_sup_l
1.28	-0.124578	0.0395566	-0.0279455	-0.443518	1.03646	-0.571891	0.608477	-0.195617	-0.197843	0.295298	-0.594999	0.186138	0	0.577782	-0.112148	-0.2489	0.196355	-0.55931	0.190217	0	-0.216287	0.0314083	-0.150051	1.24667	-0.896468	0.876698	1.56303	1.6216	-0.173475	-1.35521	-0.534042	1.35517	2.09
1.29	-0.120059	0.0363264	-0.0302219	-0.430556	1.01097	-0.572119	0.625202	-0.190998	-0.162684	0.331934	-0.633687	0.175464	0	0.593574	-0.116981	-0.224891	0.238329	-0.573319	0.180412	0	-0.22378	0.0360959	-0.192823	1.29379	-0.895422	0.912378	1.5854	1.60075	-0.803413	-1.31115	-1.13377	1.4224	2.08608
1.3	-0.117227	0.0307594	-0.0344512	-0.41834	0.984899	-0.572095	0.650124	-0.181669	-0.128266	0.391176	-0.62009	0.159332	0	0.617415	-0.123989	-0.196508	0.294053	-0.579105	0.165695	0	-0.231198	0.0406387	-0.222271	1.32332	-0.91204	0.929627	1.61311	1.58406	-1.1393	-1.21971	-1.43852	1.47643	2.06898
1.31	-0.118838	0.0264429	-0.0382513	-0.407483	0.958364	-0.572084	0.690714	-0.175201	-0.0994249	0.504904	-0.450166	0.151047	0	0.656425	-0.129626	-0.171585	0.385571	-0.486856	0.151988	0	-0.235775	0.0420323	-0.238039	1.33268	-0.949593	0.926631	1.64681	1.56929	-1.31136	-1.12891	-1.57915	1.5179	2.04365
1.32	-0.122055	0.0263728	-0.0373	-0.396731	0.930603	-0.572292	0.737009	-0.175577	-0.071443	0.65467	-0.159642	0.143766	0	0.708889	-0.130932	-0.15659	0.524877	-0.247501	0.141585	0	-0.23709	0.0374419	-0.247191	1.31848	-1.00631	0.903951	1.68531	1.55357	-1.42347	-1.04897	-1.6552	1.55151	2.00795
1.33	-0.125631	0.0240905	-0.0360667	-0.385518	0.902259	-0.572279	0.778496	-0.170794	-0.0432519	0.787653	0.0882431	0.100254	0	0.764706	-0.137107	-0.14675	0.676731	0.0221831	0.115528	0	-0.237667	0.0338379	-0.24451	1.27209	-1.08282	0.854369	1.72963	1.54211	-1.49972	-0.980733	-1.69369	1.57907	1.97873
1.34	-0.13944	0.0198566	-0.0380371	-0.375372	0.874846	-0.571713	0.827441	-0.162803	-0.0227121	0.891218	0.246184	0.0348854	0	0.830893	-0.149729	-0.133797	0.809431	0.195523	0.0613417	0	-0.233335	0.0313504	-0.222349	1.14874	-1.1813	0.731257	1.78649	1.53256	-1.54093	-0.930521	-1.70202	1.60137	1.95156
1.35	-0.174481	0.0171851	-0.0429336	-0.367586	0.849019	-0.570657	0.897981	-0.157233	-0.00735369	0.975998	0.34413	-0.0220366	0	0.921558	-0.165848	-0.115145	0.923345	0.266461	-0.0112537	0	-0.216291	0.0277556	-0.176597	0.81417	-1.28922	0.398188	1.85891	1.52545	-1.54608	-0.906739	-1.68324	1.6166	1.92899
1.36	-0.222914	0.0170748	-0.0493119	-0.361676	0.825132	-0.569589	0.987129	-0.149628	0.0171484	1.05609	0.390675	-0.0831472	0	1.02751	-0.180157	-0.0894316	1.02581	0.278007	-0.09798	0	-0.191755	0.0244449	-0.120039	0.147103	-1.32799	-0.26601	1.9284	1.5241	-1.51848	-0.898144	-1.6356	1.62074	1.91956
1.37	-0.258897	0.0174567	-0.0555436	-0.355924	0.803977	-0.568998	1.06831	-0.13713	0.0529887	1.13884	0.394523	-0.171796	0	1.1171	-0.189536	-0.0593993	1.11998	0.267436	-0.198147	0	-0.181411	0.0237499	-0.0756181	-0.362989	-1.25952	-0.768211	1.9721	1.52668	-1.47193	-0.879504	-1.56342	1.61349	1.91743
1.38	-0.268193	0.017241	-0.0592899	-0.349305	0.785992	-0.5689	1.1186	-0.128777	0.0860935	1.22019	0.388261	-0.268062	0	1.17004	-0.194781	-0.0313605	1.2038	0.258668	-0.296395	0	-0.198433	0.0242977	-0.0497377	-0.57543	-1.16183	-0.964494	1.98862	1.53178	-1.42075	-0.847115	-1.4796	1.59749	1.91682
1.39	-0.261672	0.0171528	-0.0596766	-0.342536	0.770237	-0.569164	1.14501	-0.130332	0.109819	1.29348	0.389996	-0.346907	0	1.19609	-0.198146	-0.00869589	1.27459	0.261602	-0.376057	0	-0.231313	0.024551	-0.0367088	-0.662725	-1.06728	-1.02708	1.98555	1.53676	-1.36939	-0.810391	-1.39164	1.57508	1.91242
1.4	-0.256629	0.0174747	-0.0589062	-0.336679	0.755284	-0.569686	1.16806	-0.13721	0.128066	1.35683	0.395299	-0.406492	0	1.21609	-0.202346	0.00874998	1.33321	0.275985	-0.434643	0	-0.261804	0.0250925	-0.0313472	-0.696248	-0.982771	-1.0292	1.96857	1.53954	-1.31818	-0.771526	-1.30214	1.54894	1.90588
1.41	-0.259102	0.01717	-0.0596322	-0.331828	0.740604	-0.570306	1.19578	-0.143454	0.143972	1.41121	0.398752	-0.456522	0	1.23985	-0.209214	0.0229939	1.38333	0.294435	-0.484459	0	-0.283334	0.0273346	-0.0289049	-0.704597	-0.909682	-1.00096	1.94253	1.54234	-1.26648	-0.731099	-1.21075	1.52156	1.89934
1.42	-0.266293	0.0158507	-0.0617381	-0.327516	0.726428	-0.57089	1.22469	-0.147614	0.158583	1.45849	0.405053	-0.499985	0	1.26639	-0.217632	0.0375747	1.42873	0.313857	-0.529981	0	-0.29848	0.0311943	-0.0268732	-0.700606	-0.845947	-0.956502	1.91058	1.54946	-1.2136	-0.69202	-1.1184	1.4937	1.89646
1.43	-0.276071	0.0141091	-0.0643492	-0.32354	0.712763	-0.571293	1.25296	-0.149	0.17416	1.50096	0.417483	-0.539084	0	1.29513	-0.226385	0.0553631	1.47217	0.331391	-0.570232	0	-0.309459	0.0352801	-0.0234232	-0.691194	-0.787546	-0.905822	1.87531	1.56335	-1.15938	-0.657836	-1.02769	1.46644	1.89539
1.44	-0.288576	0.011856	-0.0676726	-0.319934	0.699411	-0.571454	1.28173	-0.146651	0.191652	1.53993	0.435553	-0.574293	0	1.32786	-0.236778	0.0765871	1.51515	0.344276	-0.605255	0	-0.31649	0.039019	-0.0180413	-0.67725	-0.732591	-0.853402	1.83901	1.582	-1.10459	-0.627439	-0.941578	1.44317	1.89253
1.45	-0.303944	0.00830801	-0.0715646	-0.316702	0.68633	-0.571472	1.3118	-0.141246	0.209513	1.57594	0.454524	-0.606124	0	1.36542	-0.250032	0.100957	1.55813	0.360445	-0.610865	0	-0.319717	0.0431566	-0.0122559	-0.657009	-0.681691	-0.799909	1.80256	1.60452	-1.05006	-0.597465	-0.862595	1.42678	1.88728
1.46	-0.321152	0.00387777	-0.0749916	-0.313793	0.673605	-0.571578	1.34293	-0.136064	0.227115	1.61009	0.478686	-0.610865	0	1.40614	-0.263498	0.127395	1.60008	0.372146	-0.610865	0	-0.320552	0.0477976	-0.00778324	-0.631464	-0.635263	-0.748177	1.76638	1.63795	-0.995798	-0.566798	-0.793025	1.41777	1.87978
1.47	-0.338257	0.000584032	-0.0775277	-0.311147	0.661459	-0.571695	1.37447	-0.132919	0.245704	1.64341	0.499115	-0.610865	0	1.44549	-0.275177	0.15249	1.63899	0.381382	-0.610865	0	-0.321823	0.050719	-0.00458647	-0.602627	-0.591223	-0.702094	1.73245	1.69954	-0.940916	-0.53609	-0.735536	1.41621	1.86889
